<svg xmlns="http://www.w3.org/2000/svg" xmlns:xlink="http://www.w3.org/1999/xlink" width="389.492" height="282.474" viewBox="0 0 389.492 282.474"><defs><style>.a{fill:none;}.b{fill:#536dfe;}.c,.d{fill:#fff;}.c{opacity:0.7;}.e,.h,.i{fill:#263238;}.f{clip-path:url(#a);}.g{clip-path:url(#b);}.h,.i{font-size:12px;font-family:Montserrat-Light, Montserrat;font-weight:300;}.i{letter-spacing:-0.13em;}.j{letter-spacing:-0.06em;}</style><clipPath id="a"><path class="a" d="M1.91,56.245C-1.389,54.269.587,44.413.587,40.77s0-28.34,1.975-30.66S9.484,2.2,9.484,2.2,22.378-.837,24.66.225,29.924,4.2,30.25,7.809s-.988,43.163-2.963,46.461c-1.233,2.06-9.54,3.088-16.406,3.088C6.755,57.357,3.148,56.986,1.91,56.245ZM9.735,2.639c-.708.8-5.022,5.7-6.819,7.8C1.77,11.778,1.053,23.4,1.053,40.789c0,.875-.112,2.068-.233,3.456-.373,4.08-.932,10.248,1.332,11.617,1.444.867,7,1.267,12.913.932,6.307-.363,11.059-1.462,11.823-2.738,1.863-3.149,3.223-42.6,2.9-46.182s-3.372-6.3-5.338-7.2a3.816,3.816,0,0,0-1.474-.2C20.01.473,13.9,1.652,9.735,2.639Z" transform="translate(0 0)"/></clipPath><clipPath id="b"><path class="a" d="M11.608,34.62,0,2.012,4.006,0,17.2,21.521a3.726,3.726,0,0,0,4.025,1.863l18.253-5.165.137.508L21.343,23.9a4.211,4.211,0,0,1-4.555-2.124L3.828.634.578,2.274,12.046,34.406a4.909,4.909,0,0,0,5.412,3.046l30.295-7.236.319.463-30.53,7.286a5.371,5.371,0,0,1-5.935-3.345Z"/></clipPath></defs><g transform="translate(15.437 0)"><path class="b" d="M392.142,384.492c3.727,0,11.934-32.03,12.875-35.4a281.618,281.618,0,0,0,10.108-92.13c-2.283-38.523-6.522-80.428-28.546-110.2-44.626-60.4-127.635-52.787-169.829,6.792-12.475,17.6-25.518,35.645-42.287,47.271-19.052,13.267-41.477,11.468-61.926,19.686-31.07,12.484-55.2,55.982-54.38,96.434.661,32.756,20.962,65.895,48.864,68.289C133.761,387.52,392.03,384.492,392.142,384.492Z" transform="translate(-58.138 -104.999)"/><path class="c" d="M392.142,384.492c3.727,0,11.934-32.03,12.875-35.4a281.618,281.618,0,0,0,10.108-92.13c-2.283-38.523-6.522-80.428-28.546-110.2-44.626-60.4-127.635-52.787-169.829,6.792-12.475,17.6-25.518,35.645-42.287,47.271-19.052,13.267-41.477,11.468-61.926,19.686-31.07,12.484-55.2,55.982-54.38,96.434.661,32.756,20.962,65.895,48.864,68.289C133.761,387.52,392.03,384.492,392.142,384.492Z" transform="translate(-58.138 -104.999)"/><path class="d" d="M366.419,138.634c-3.727-2.012-5.366-.335-6.708-2.012s3.727-6.037-6.372-10.406c0,0-.671-9.391-14.431-9.726s-10.062,9.391-13.751,11.739-4.658-1.342-8.385,1.015-2.012,7.043-5.031,7.714-7.053-3.019-10.742-.671-3.727,4.36-5.366,4.36-5.031-1.342-7.043,0-4.36,3.019-4.36,3.019H369.1S370.108,140.647,366.419,138.634Z" transform="translate(-73.594 -105.784)"/><path class="b" d="M196.877,141.279c-2.32-1.267-3.382-.214-4.22-1.267s2.32-3.792-4.015-6.521c0,0-.419-5.907-9.065-6.121s-6.335,5.907-8.655,7.388-2.953-.848-5.273.634-1.267,4.435-3.168,4.854-4.425-1.863-6.745-.419-2.329,2.739-3.382,2.739-3.168-.848-4.425,0l-2.748,1.863h53.383S199.2,142.546,196.877,141.279Z" transform="translate(-64.088 -106.528)"/><path class="b" d="M196.877,141.279c-2.32-1.267-3.382-.214-4.22-1.267s2.32-3.792-4.015-6.521c0,0-.419-5.907-9.065-6.121s-6.335,5.907-8.655,7.388-2.953-.848-5.273.634-1.267,4.435-3.168,4.854-4.425-1.863-6.745-.419-2.329,2.739-3.382,2.739-3.168-.848-4.425,0l-2.748,1.863h53.383S199.2,142.546,196.877,141.279Z" transform="translate(-64.088 -106.528)"/><path class="c" d="M196.877,141.279c-2.32-1.267-3.382-.214-4.22-1.267s2.32-3.792-4.015-6.521c0,0-.419-5.907-9.065-6.121s-6.335,5.907-8.655,7.388-2.953-.848-5.273.634-1.267,4.435-3.168,4.854-4.425-1.863-6.745-.419-2.329,2.739-3.382,2.739-3.168-.848-4.425,0l-2.748,1.863h53.383S199.2,142.546,196.877,141.279Z" transform="translate(-64.088 -106.528)"/></g><g transform="translate(21.83 276.521)"><rect class="e" width="367.662" height="5.953"/></g><g transform="translate(0 26.916)"><path class="e" d="M440.27,295.651c-1.863-16.248-7.956-15.54-9.857-31.788s4.146-16.956,2.245-33.2-7.956-15.54-9.866-31.788,4.155-16.956,2.245-33.2-7.956-15.54-9.857-31.778l-.932,3.289c-1.863,13.043-7.192,13.714-8.487,28.881-1.4,16.3,4.658,16.825,3.279,33.138s-7.453,15.791-8.869,32.1,4.658,16.825,3.279,33.138-7.453,15.838-8.86,32.1a39.724,39.724,0,0,0,1.416,15.763c1.258,2.916,6.568,13.7,17.273,16.835a17.458,17.458,0,0,0,2.068.466v54.482h2.45V329.8c9.838.065,16.378-9.633,21.344-17.748l.065-.1A40.126,40.126,0,0,0,440.27,295.651ZM429.2,289.222l-12.158,22.564v16.974H416V311.805l-13.537-22.229a.541.541,0,1,1,.932-.55l12.642,20.748V245.789a.54.54,0,0,1-.242-.168L404.98,231.647a.525.525,0,0,1,.829-.643l10.248,13.2V183.369l-7.276-14.552a.531.531,0,0,1,.27-.689.522.522,0,0,1,.661.224l6.335,12.68v-21.2a.522.522,0,1,1,1.043,0h0v20.626l4.23-10.7a.525.525,0,0,1,.978.382h0l-5.208,13.173v60.175l9.9-11.748a.522.522,0,0,1,.8.671l-10.7,12.708v64.46l11.236-20.859a.522.522,0,0,1,.708-.2.512.512,0,0,1,.168.708Z" transform="translate(-65.684 -133.89)"/><path class="e" d="M446.731,401.029l-2.907-.932c-1.5-.457-1.994-1.817-3.484-4.537s-5.478,1.36-8.469,1.36.494-3.177-1-5.9-5.478.457-8.962-.456,1.491-9.074-3.484-8.618c-.932.084-1.612.82-2.133,1.956-.475-1.137-1.1-1.863-1.938-1.956-4.537-.456,0,7.714-3.177,8.618s-6.8-2.264-8.161.456,1.807,5.9-.932,5.9-6.354-4.081-7.714-1.36-1.817,4.081-3.177,4.537l-2.646.932Z" transform="translate(-65.288 -150.846)"/><path class="e" d="M165.879,254.7v-.047h-.056v-.047h0c-1.295-.13-14.7-1.276-26.934,5.077a32.775,32.775,0,0,0,6.922-24.064c-2.944-29.533-30.819-46.442-32.961-47.7v-.075h-.13v.14c-2.152,1.258-30.017,18.167-32.971,47.7a32.868,32.868,0,0,0,2.553,16.77c-15.689-9.382-33.986-7.8-35.672-7.639h-.186v.056c-.829,1.863-11.3,27.092,1.276,48.445C58.973,312.447,82.571,307.4,88.981,305.6c5.385,5.655,15.2,18.521,19.564,40.5h-6.112l2.953,41.607h13.751l2.953-41.551h-7.2A127.133,127.133,0,0,1,132.461,304.3c6.41,1.6,23.785,4.3,32.346-10.248C175.018,276.682,166.512,256.26,165.879,254.7Zm-53.532-.158L97.813,234.357a.391.391,0,0,1,.084-.55h0a.4.4,0,0,1,.559.084L112.328,253.2V232.774h0L97.794,212.594a.4.4,0,0,1,.084-.559.41.41,0,0,1,.559.093l13.909,19.332V201.648a.41.41,0,0,1,.457-.335.391.391,0,0,1,.335.335v28.778l15.093-19.145a.4.4,0,0,1,.55-.075h0a.4.4,0,0,1,.065.55L113.12,231.777v20.5l15.093-19.145a.4.4,0,0,1,.624.484h0L113.12,253.549V270.84L128.212,251.7a.4.4,0,0,1,.55-.075h0a.4.4,0,0,1,.065.55L113.12,272.117v.382h-1.276L97.785,252.934a.4.4,0,0,1,.084-.559.41.41,0,0,1,.559.093l13.9,19.369V254.509ZM89.214,303.82l-1.425-1.956-20.5-5.7a.335.335,0,0,1,.177-.643L87.155,301l-8.543-11.683-20.449-5.7a.335.335,0,0,1-.233-.41.326.326,0,0,1,.4-.224h0l19.648,5.478-10.1-13.826-20.5-5.7a.307.307,0,0,1-.224-.382h0a.326.326,0,0,1,.4-.233h0l19.648,5.478L53.048,254.36a.335.335,0,0,1,.075-.466.326.326,0,0,1,.447.056h0l14.7,20.1-.14-19.918a.335.335,0,1,1,.661-.112.223.223,0,0,1,0,.112l.2,20.794h0l10.09,13.816-.14-19.928a.335.335,0,1,1,.661-.112.223.223,0,0,1,0,.112l.149,20.813h0l8.385,11.645-.149-19.928a.345.345,0,0,1,.335-.326.326.326,0,0,1,.326.326h0l.149,20.8h0l1.22,1.668Zm2.329,0c2.981-4.537,11.59-19.434,6.447-33.772a64.827,64.827,0,0,0,12.754,6.521v64.693c-4.723-19.825-13.621-31.676-19.033-37.443ZM113.9,337.276V276.868a64.551,64.551,0,0,0,12.2-5.962c-8.208,13.155.932,28.35,3.41,31.937a126.544,126.544,0,0,0-15.6,34.433Zm51.166-63.063-16.592,4.658-8.2,11.18,15.94-4.453a.271.271,0,0,1,.149.522l-16.6,4.658-6.922,9.475,15.94-4.444a.27.27,0,0,1,.326.186.279.279,0,0,1-.186.335l-16.592,4.658-.876,1.193c-.158-.093-.317-.177-.457-.28l.494-.68h0l.121-16.881a.279.279,0,0,1,.27-.27.27.27,0,0,1,.27.27h0l-.112,16.164,6.922-9.465h0l.121-16.881a.27.27,0,0,1,.27-.27h0a.279.279,0,0,1,.27.27L139.5,290.33l8.189-11.18h0l.121-16.891a.27.27,0,0,1,.531,0h0l-.168,16.1L160.1,262.046a.27.27,0,0,1,.373-.056.261.261,0,0,1,.065.363h0l-11.524,15.773,15.931-4.425a.27.27,0,0,1,.326.186.252.252,0,0,1-.158.317Z" transform="translate(-41.568 -137.579)"/></g><g transform="translate(95.41 38.407)"><path class="d" d="M344.119,197.425l-2.469-7.4-5.2-7.118-2.981,8.3,6.81,8.953Z" transform="translate(-156.933 -148.732)"/><path class="e" d="M340.149,200.734l-7.239-9.512,3.354-9.372,5.795,7.966,2.571,7.723Zm-6.223-9.67,6.391,8.385,3.186-2.273-2.338-7-4.658-6.363Z" transform="translate(-156.894 -148.659)"/><path class="b" d="M381.418,221.483l-20.72.727a4.006,4.006,0,0,1-3.727-2.189l-12.354-21.53s-3.559,1.919-3.838,2.739,8.254,21.521,11.916,30.744a4,4,0,0,0,3.913,2.525l23.17-.932" transform="translate(-157.432 -149.797)"/><path class="e" d="M356.408,234.939a4.481,4.481,0,0,1-4.174-2.795c-.745-1.863-1.686-4.23-2.72-6.792-8.077-20.151-9.382-23.738-9.2-24.279.3-.932,2.935-2.394,4.053-3l.4-.214,12.577,21.921a3.577,3.577,0,0,0,3.307,1.956l20.72-.727v.932l-20.72.727a4.528,4.528,0,0,1-4.164-2.441l-12.111-21.111a13.435,13.435,0,0,0-3.186,2.208c.252,1.463,5.59,14.8,9.158,23.682,1.025,2.562,1.975,4.919,2.72,6.792a3.531,3.531,0,0,0,3.456,2.236l23.17-.932v.932l-23.17.932Z" transform="translate(-157.399 -149.754)"/><rect class="e" width="3.512" height="0.699" transform="translate(185.338 53.57) rotate(-22.52)"/><rect class="b" width="195.924" height="148.103" transform="translate(0.467 88.819)"/><path class="e" d="M340.37,390.062H144.446a.466.466,0,0,1-.466-.466V241.466a.466.466,0,0,1,.466-.466H340.37a.484.484,0,0,1,.466.466V389.6A.466.466,0,0,1,340.37,390.062Zm-195.439-.932H339.922v-147.2H144.93Z" transform="translate(-143.979 -152.703)"/><path class="b" d="M144.48,235.076l86.885-84.854a14.8,14.8,0,0,1,18.959-.149l90.08,85Z" transform="translate(-144.013 -146.258)"/><path class="e" d="M340.37,235.509H144.446a.456.456,0,0,1-.429-.289.475.475,0,0,1,.1-.512L231,149.863a15.27,15.27,0,0,1,19.564-.186l90.1,85.031a.456.456,0,0,1,.112.512A.466.466,0,0,1,340.37,235.509Zm-194.778-.932H339.2l-89.223-84.2a14.31,14.31,0,0,0-18.335.177Z" transform="translate(-143.979 -146.224)"/><rect class="d" width="163.428" height="137.92" transform="translate(16.715 18.126)"/><path class="e" d="M325.314,304.024H161.886a.466.466,0,0,1-.466-.466V165.676a.466.466,0,0,1,.466-.466H325.314a.466.466,0,0,1,.466.466V303.558A.466.466,0,0,1,325.314,304.024Zm-162.962-.932h162.5V166.142h-162.5Z" transform="translate(-145.171 -147.522)"/><path class="b" d="M318.686,295.822H169.624a.354.354,0,0,1-.354-.354h0V175.035a.354.354,0,0,1,.354-.345H318.686a.363.363,0,0,1,.345.345V295.468a.354.354,0,0,1-.345.354ZM169.95,295.16H318.332V175.389H169.95Z" transform="translate(-145.708 -148.17)"/><path class="b" d="M314.23,292.792H174.652a.932.932,0,0,1-.932-.932V179.132a.932.932,0,0,1,.932-.932H314.23a.932.932,0,0,1,.932.932V291.86A.932.932,0,0,1,314.23,292.792Zm-138.647-1.863H313.3V180.063H175.583Z" transform="translate(-146.012 -148.41)"/><path class="b" d="M242,221.566c.689,1.09,1.407,1.64,2.152,1.64v.084c-.484,0-1.118.429-1.863,1.286,0,.233-.084.345-.261.345,0-.438-.279-.811-.857-1.118a3.652,3.652,0,0,0-1.807-.345h-19.2l-1.807.689-.261.261h-.14a1.332,1.332,0,0,1-.391-1.863,1.3,1.3,0,0,1,.391-.391h.168a4.277,4.277,0,0,0,1.863.773l.177.177h19.779C241.311,222.861,242,222.386,242,221.566Zm3.1-.6c.755,0,1.36.54,1.8,1.63v.177h-.252c-1.211-.391-1.807-.848-1.807-1.379v-.177Zm1.453,2.795h.177l.168.177c0,.475-.484,1.015-1.463,1.63h-.084c-.3,0-.475-.084-.512-.252v-.345a2.935,2.935,0,0,1,1.714-1.183Zm3.27-2.795.177.252v.177c0,.4-.522.857-1.547,1.379h-.522V222.6c0-.475.457-.988,1.379-1.547Zm-1.714,2.795a1.966,1.966,0,0,1,1.118.438c.512.3.773.615.773.932v.177c-.056.168-.233.252-.522.252H249.4a3.2,3.2,0,0,1-1.286-1.2l-.177-.261v-.168Zm4.723-2.236c0,.82.689,1.332,2.068,1.556h19.779a2.208,2.208,0,0,1,1.286-.438l.773-.512h.177a1.342,1.342,0,0,1,0,2.236h-.177a6.074,6.074,0,0,0-2.236-.932H255.5c-1.4,0-2.292.41-2.664,1.211v.252c-.717-.932-1.314-1.463-1.807-1.463q0-.168-.335-.168c0-.112.2-.168.6-.168a2.8,2.8,0,0,0,1.463-1.556Z" transform="translate(-148.994 -151.334)"/><path class="b" d="M144.48,242.47l97.962,74.047,97.952-74.047V390.563H144.48Z" transform="translate(-144.013 -152.803)"/><path class="e" d="M340.37,390.99H144.446a.466.466,0,0,1-.466-.466V242.393a.5.5,0,0,1,.745-.41l97.682,73.832,97.673-73.823a.466.466,0,0,1,.652.075.475.475,0,0,1,.1.289V390.487a.466.466,0,0,1-.419.512Zm-195.458-.932H339.9v-146.7L242.687,316.85a.475.475,0,0,1-.559,0l-97.2-73.488Z" transform="translate(-143.979 -152.764)"/><path class="b" d="M144.48,395.241,228.821,310.9h27.232l84.341,84.341Z" transform="translate(-144.013 -157.481)"/><path class="e" d="M340.37,395.673H144.446a.475.475,0,0,1-.429-.28.456.456,0,0,1,.1-.512l84.341-84.341a.438.438,0,0,1,.326-.14h27.232a.438.438,0,0,1,.326.14L340.7,394.881a.494.494,0,0,1,.1.512.475.475,0,0,1-.429.28Zm-194.8-.932H339.242L255.8,311.332H228.983Z" transform="translate(-143.979 -157.447)"/><path class="d" d="M378.48,211.522l-.27,7.854,9.363-1.491.326-13.7Z" transform="translate(-159.991 -150.187)"/><path class="e" d="M377.69,219.854l.289-8.636,10.379-8.068-.363,15.065Zm1.211-8.17-.242,7.071,8.385-1.342.289-12.326Z" transform="translate(-159.956 -150.116)"/><path class="d" d="M368.516,398.917a13.193,13.193,0,0,1-.475-1.677l-.531-3.941-6.894-1.1-5.748,4.09-3.652,2.012h-.074a14.055,14.055,0,0,0-2.562,1.36c-.606.531-.307,1.127,1.509,1.127h18.055S369.019,400.277,368.516,398.917Z" transform="translate(-157.946 -163.039)"/><path class="e" d="M368.2,401.231H350.025c-1.258,0-2-.28-2.208-.829a.987.987,0,0,1,.391-1.118,14.089,14.089,0,0,1,2.693-1.435h.1l3.577-1.966,5.86-4.174,7.453,1.192.568,4.276a15.238,15.238,0,0,0,.456,1.574h0a1.929,1.929,0,0,1-.578,2.46Zm-19.5-1.109a3.73,3.73,0,0,0,1.323.177h17.9c.14-.14.382-.512.1-1.248h0a13.82,13.82,0,0,1-.5-1.742l-.484-3.633-6.363-1.025-5.59,3.987-3.848,2.087a13.117,13.117,0,0,0-2.4,1.258.437.437,0,0,0-.121.14Z" transform="translate(-157.91 -163.006)"/><path class="d" d="M368.626,400H348.857a1.856,1.856,0,0,0-.307.233c-.606.531-.307,1.127,1.509,1.127h18.055A1.323,1.323,0,0,0,368.626,400Z" transform="translate(-157.944 -163.572)"/><path class="e" d="M368.2,401.762H350.025c-1.258,0-2-.279-2.208-.829a.988.988,0,0,1,.391-1.118,2.572,2.572,0,0,1,.363-.261l.112-.084h20.31l.065.4a1.789,1.789,0,0,1-.745,1.863Zm-19.5-1.109a3.727,3.727,0,0,0,1.323.177h17.887a.82.82,0,0,0,.214-.429H348.962l-.14.112A.437.437,0,0,0,348.7,400.653Z" transform="translate(-157.91 -163.536)"/><path class="d" d="M401.166,398.917a14.983,14.983,0,0,1-.484-1.677l-.522-3.941-6.894-1.1-5.748,4.09-3.652,2.012h-.075a14.141,14.141,0,0,0-2.571,1.36c-.606.531-.3,1.127,1.509,1.127h18.055S401.687,400.277,401.166,398.917Z" transform="translate(-160.178 -163.039)"/><path class="e" d="M400.88,401.231H382.695c-1.258,0-1.994-.28-2.208-.829a.987.987,0,0,1,.391-1.118,14.088,14.088,0,0,1,2.692-1.435h.112l3.568-1.966,5.869-4.174,7.453,1.192.568,4.276a15.206,15.206,0,0,0,.447,1.574,1.91,1.91,0,0,1-.578,2.46Zm-19.5-1.109a3.478,3.478,0,0,0,1.314.177h17.9c.14-.14.391-.512.1-1.248h0a16.1,16.1,0,0,1-.494-1.742l-.494-3.633-6.363-1.025-5.59,3.987-3.848,2.087a13.118,13.118,0,0,0-2.4,1.258.6.6,0,0,0-.121.14Z" transform="translate(-160.144 -163.006)"/><path class="d" d="M401.305,400H381.536a2.518,2.518,0,0,0-.317.233c-.606.531-.3,1.127,1.509,1.127h18.055a1.332,1.332,0,0,0,.522-1.36Z" transform="translate(-160.178 -163.572)"/><path class="e" d="M400.88,401.762H382.695c-1.258,0-1.994-.279-2.208-.829a.988.988,0,0,1,.391-1.118,2.571,2.571,0,0,1,.363-.261l.121-.084h20.31l.056.4a1.78,1.78,0,0,1-.736,1.863Zm-19.5-1.109a3.476,3.476,0,0,0,1.314.177h17.9a.848.848,0,0,0,.214-.429H381.642l-.149.112a.6.6,0,0,0-.121.14Z" transform="translate(-160.144 -163.536)"/><path class="b" d="M366.818,275.53l-.829,10.248s-5.73,40.769-5.459,45.455.932,53.038.932,53.038l6.894,1.1,7.751-53.634,10.882-54.5Z" transform="translate(-158.782 -155.063)"/><path class="e" d="M368.686,385.864l-7.751-1.286v-.391c0-.484-.615-48.38-.885-53.01s5.226-43.88,5.459-45.548l.857-10.639,21.12,1.733-.1.512-10.891,54.51Zm-6.82-2.078,6.037.932,7.677-53.169,10.788-54.035-19.145-1.584-.792,9.736c-.056.438-5.72,40.806-5.459,45.389S361.791,379.166,361.866,383.787Z" transform="translate(-158.749 -155.027)"/><path class="e" d="M366.643,385.94l-.643-.1c0-.149,2.981-15.326,2.981-23.5s0-15.978,1.994-23.654c1.966-7.528,4.658-23.049,4.658-23.207l.689.121c0,.158-2.683,15.7-4.658,23.291s-1.938,15.27-1.938,23.477S366.671,385.837,366.643,385.94Z" transform="translate(-159.156 -157.794)"/><path class="b" d="M381.474,272.641c4.556-2.376,9.447-3.969,10.826-.792,2.795,6.344-.55,16-.55,16l2.487,44.477,4.947,52.656-7.779-.075s-10.052-45.315-11.7-48.073-4.267-41.542-4.267-41.542L370.22,290.5" transform="translate(-159.445 -154.69)"/><path class="e" d="M399.711,385.4l-8.664-.084-.084-.363c-3.466-15.642-10.369-45.8-11.645-47.933-1.64-2.73-4-36.781-4.314-41.56l-5.124-4.658.624-.689,5.4,4.891v.186c1.043,15.549,3.028,39.38,4.2,41.337,1.612,2.692,10.649,43.256,11.673,47.849l6.894.065-4.9-52.172-2.534-44.607v-.093c0-.093,3.214-9.559.559-15.652a2.227,2.227,0,0,0-1.379-1.3c-1.7-.606-4.742.2-8.8,2.32l-.429-.829c4.351-2.273,7.565-3.065,9.549-2.366a3.149,3.149,0,0,1,1.919,1.807c2.683,6.186-.158,15.2-.512,16.238l2.525,44.393Z" transform="translate(-159.422 -154.651)"/><path class="e" d="M396.972,385.136c0-.186-2.022-19.052-4.975-32.486-2.236-10.183-2.068-10.8-1.863-11.72a4.108,4.108,0,0,0,.158-1.3v-1.863c.056-3.168.14-7.956-.671-10.63-1.239-4.146-1.863-10.062-2.031-18.092h.7c.121,7.965.783,13.816,2,17.906.838,2.795.755,7.63.7,10.835v1.863a5.032,5.032,0,0,1-.177,1.491c-.2.764-.373,1.36,1.863,11.385,2.963,13.471,4.966,32.374,4.994,32.607Z" transform="translate(-160.632 -157.354)"/><path class="e" d="M388.339,302.21h-.7V299.77c.279-13.183.084-14.645,0-14.8l.317-.121-.317-.158.4-.186c.354.084.587.14.261,15.288C388.357,300.617,388.348,301.428,388.339,302.21Z" transform="translate(-160.636 -155.677)"/><path class="e" d="M371.855,291.819a.382.382,0,0,1-.27-.121l-1.612-1.863a.317.317,0,0,1-.065-.335l1.062-3.2.214-4.658a.345.345,0,0,1,.363-.335.354.354,0,0,1,.335.354h0l-.224,4.658a.2.2,0,0,1,0,.1l-1.015,3.046,1.491,1.742a.345.345,0,0,1,0,.484h0A.354.354,0,0,1,371.855,291.819Z" transform="translate(-159.422 -155.459)"/><path class="e" d="M376.516,287.05c-5.208,0-7.323-2.05-7.453-2.152a.335.335,0,0,1,0-.475h0a.345.345,0,0,1,.484,0s2.7,2.571,9.437,1.789a.335.335,0,0,1,.382.289h0a.345.345,0,0,1-.289.391h0a21.208,21.208,0,0,1-2.562.158Z" transform="translate(-159.359 -155.665)"/><path class="e" d="M385.777,281.352c5.254-1.025,5.59-2.506,7.388-3.727a15.166,15.166,0,0,0-1.09-5.785c-1.379-3.177-6.27-1.584-10.826.792l-2.143,3.494-11.8-.932-.373,4.658a39.427,39.427,0,0,0,18.847,1.5Z" transform="translate(-159.22 -154.69)"/><path class="d" d="M368.532,278.97l-.112,1.845,3,.689.224-2.413Z" transform="translate(-159.322 -155.299)"/><path class="e" d="M371.731,281.915l-3.671-.848.149-2.487,3.82.149Zm-2.944-1.4,2.32.531.158-1.649-2.394-.093Z" transform="translate(-159.297 -155.272)"/><path class="b" d="M390.952,281.527l-.512-4.574,1.528-.512.764,4.071" transform="translate(-160.827 -155.126)"/><path class="e" d="M390.45,281.538l-.55-4.956,2.385-.8.866,4.6-.913.168-.671-3.54-.661.214.466,4.211Z" transform="translate(-160.79 -155.081)"/><path class="b" d="M378.345,283.158l-1.025-5.348h2.543l1.025,4.584" transform="translate(-159.93 -155.219)"/><path class="e" d="M377.838,283.207l-1.118-5.9H380.2l1.1,4.947-.913.2-.941-4.211h-1.6l.913,4.789Z" transform="translate(-159.889 -155.185)"/><path class="d" d="M374.7,220.369s-4.947,5.59-6.922,7.91-1.975,27.018-1.975,30.66-1.975,13.5,1.323,15.475,23.4,1.323,25.378-1.975,3.289-42.855,2.963-46.461-3.307-6.521-5.59-7.584S374.7,220.369,374.7,220.369Z" transform="translate(-159.103 -151.142)"/><path class="e" d="M376.048,275.956c-3.959,0-7.788-.335-9.2-1.174-2.795-1.668-2.2-7.928-1.779-12.5.121-1.37.233-2.543.233-3.373,0-10.658.27-28.881,2.087-30.958,1.956-2.283,6.876-7.863,6.931-7.919l.093-.112h.149c1.332-.317,13.043-3.046,15.456-1.947a10.511,10.511,0,0,1,5.879,7.956c.335,3.605-1,43.368-3.028,46.74-1.379,2.31-9.251,3-12.568,3.2C378.955,275.919,377.483,275.956,376.048,275.956Zm-1.127-55.181c-.708.8-5.022,5.7-6.82,7.8-1.146,1.342-1.863,12.968-1.863,30.353,0,.876-.112,2.068-.233,3.456-.373,4.081-.932,10.248,1.332,11.618,1.444.866,7,1.267,12.913.932,6.307-.363,11.059-1.463,11.823-2.739,1.863-3.149,3.223-42.6,2.9-46.181s-3.372-6.3-5.338-7.2C388.076,218.064,380.036,219.564,374.921,220.775Z" transform="translate(-159.069 -151.111)"/><g class="f" transform="translate(206.117 67.026)"><path class="b" d="M390.114,218.4a2.44,2.44,0,0,0-.857-.186l-1.425.745s3.95,3.056,4.658,7.723a40.991,40.991,0,0,1-.177,13.285c-.717,4.854-12.214,0-10.052,1.8s10.248,4.854,10.593,6.466-3.95,4.313-5.59,4.49,1.081,3.773,2.7,6.829,1.071,7.36-2.7,10.248-12.409,4.341-16.155,4.49c-1.22.047-1.984.317-2.2.68,5.748,1.276,22.052.447,23.822-2.506,1.984-3.3,3.289-42.855,2.963-46.461S392.415,219.458,390.114,218.4Z" transform="translate(-365.472 -218.171)"/></g><path class="d" d="M385.54,247c-5.31-1.658-9.95-6.307-9.95-6.307a22.406,22.406,0,0,0,8.962,13.611" transform="translate(-159.812 -152.682)"/><path class="e" d="M384.527,254.62a.317.317,0,0,1-.2-.065,22.983,22.983,0,0,1-9.1-13.835.351.351,0,0,1,.587-.307c0,.047,4.658,4.658,9.819,6.223a.354.354,0,0,1,.224.438.336.336,0,0,1-.429.233h0a27.446,27.446,0,0,1-9.251-5.59A22.359,22.359,0,0,0,384.722,254a.335.335,0,0,1,.084.475h0A.335.335,0,0,1,384.527,254.62Z" transform="translate(-159.786 -152.656)"/><path class="d" d="M389.377,214.52l-15.819,3.624-.988,4.612,17.794-4.612Z" transform="translate(-159.606 -150.893)"/><path class="e" d="M371.91,223.357l1.211-5.646,16.574-3.792,1.23,4.518Zm1.994-4.863-.764,3.587,16.611-4.314-.745-2.739Z" transform="translate(-159.56 -150.852)"/><path class="d" d="M341.276,191.819l-4.258-2.46s-1.649-.214-.932,1.64l4.248,3.279" transform="translate(-157.099 -149.172)"/><path class="e" d="M340.291,194.73a.438.438,0,0,1-.279-.093l-4.258-3.289a.438.438,0,0,1-.149-.2,1.789,1.789,0,0,1,.056-1.779,1.621,1.621,0,0,1,1.379-.494.558.558,0,0,1,.177.056l4.258,2.469a.466.466,0,1,1-.382.848l-.084-.047-4.118-2.4a.643.643,0,0,0-.466.14c-.093.121-.074.4.047.755l4.146,3.2a.457.457,0,0,1,.093.643h0a.494.494,0,0,1-.419.186Z" transform="translate(-157.064 -149.139)"/><path class="d" d="M340.189,198.317a4.129,4.129,0,0,0-.866-1.37l-.792-.857h0l-4.323-5.357s-1.342-.932-1.043,1.043l2.683,5.208-4.77-4.463s-.932-.745-.932.289,4.323,5.664,4.323,5.664l-4.77-2.236s-1.043.745-.3,1.491,4.77,2.236,4.77,2.236l-3.577-.149s-1.043.932-.3,1.193,4.919,1.193,4.919,1.193A6.046,6.046,0,0,0,337,203.246l1.043,1.938,4.006-2.012Z" transform="translate(-156.636 -149.252)"/><path class="e" d="M338.065,205.578a.475.475,0,0,1-.41-.242l-.932-1.789a6.131,6.131,0,0,1-1.7-.988c-.839-.186-4.136-.932-4.845-1.183a.857.857,0,0,1-.55-.633c-.093-.6.531-1.183.717-1.351a.512.512,0,0,1,.326-.112h.876a9.979,9.979,0,0,1-2.413-1.323,1.23,1.23,0,0,1-.4-1.006,1.863,1.863,0,0,1,.755-1.193.447.447,0,0,1,.466-.047l2.674,1.258c-1.37-1.574-2.888-3.484-2.888-4.267a.932.932,0,0,1,.475-.932,1.23,1.23,0,0,1,1.183.3l2.795,2.646-1.453-2.795a.354.354,0,0,1,0-.14c0-.307-.186-1.258.419-1.649a1.313,1.313,0,0,1,1.351.149.483.483,0,0,1,.1.093l4.323,5.366a.6.6,0,0,1,.074.13l.68.736a4.762,4.762,0,0,1,.932,1.509l1.91,4.817a.456.456,0,0,1-.224.587L338.3,205.54a.642.642,0,0,1-.233.037Zm-7.518-5.049c.773.27,3.68.932,4.779,1.146a.457.457,0,0,1,.289.2,5.45,5.45,0,0,0,1.574.876.475.475,0,0,1,.242.2l.829,1.546,3.223-1.621-1.761-4.425h0a4.175,4.175,0,0,0-.773-1.22l-.8-.857a.522.522,0,0,1-.1-.186l-4.174-5.171a1.07,1.07,0,0,0-.289-.1,1.864,1.864,0,0,0,0,.643l2.646,5.152a.476.476,0,0,1-.727.578l-4.77-4.472-.112-.075h0c0,.578,2.208,3.223,4.192,5.348a.466.466,0,0,1,0,.661.447.447,0,0,1-.512.084l-4.491-2.105a.7.7,0,0,0-.186.345.419.419,0,0,0,.13.261,22.649,22.649,0,0,0,4.6,2.124.475.475,0,0,1,.3.531.466.466,0,0,1-.475.373l-3.382-.14A1.482,1.482,0,0,0,330.546,200.528Z" transform="translate(-156.608 -149.217)"/><path class="d" d="M386.823,234.749l-30.53,7.285a5.376,5.376,0,0,1-5.934-3.345L338.75,206.082l4.006-2.012,13.192,21.521a3.727,3.727,0,0,0,4.025,1.863l18.269-5.171" transform="translate(-157.294 -150.178)"/><path class="e" d="M355.347,242.484a5.86,5.86,0,0,1-5.459-3.727L338.13,205.824l4.751-2.394,13.425,21.894A3.251,3.251,0,0,0,359.837,227l18.232-5.18.252.932-18.269,5.171A4.211,4.211,0,0,1,355.5,225.8L342.537,204.66l-3.251,1.64,11.468,32.132a4.91,4.91,0,0,0,5.413,3.046l30.5-7.285.214.932-30.521,7.295A6.2,6.2,0,0,1,355.347,242.484Z" transform="translate(-157.251 -150.135)"/><g class="g" transform="translate(181.456 53.891)"><path class="b" d="M343.35,220.17s9.512,17.953,13.108,19.21,11.133-1.435,11.133-1.435-10.416-.932-6.829-1.258,7.723.54,14.552-1.071,10.248-4.658,8.441-1.621-11.86,5.031-15.447,6.289-11.5,3.233-13.826,2.869a5,5,0,0,1-3.419-2.692Z" transform="translate(-339.065 -205.17)"/></g><rect class="e" width="5.199" height="0.699" transform="translate(182.904 59.853) rotate(-26.6)"/><path class="d" d="M392.384,197.265a2.022,2.022,0,0,1,2.152,1.127,3.484,3.484,0,0,1-.14,3.326c-1.453,2.553-4.91,3.456-4.91,3.456s-3.279,4.733-6.521,6.009-8.515,1.565-10.015-5.1c-.652-2.925,1.276-14.906,1.276-14.906a6.615,6.615,0,0,1,2.273-4.565c2.161-1.649,7.192-1.956,10.071-1.034s4.658,3.6,5.45,5.655a12.307,12.307,0,0,1,.615,4.723l-.307,1.342Z" transform="translate(-159.622 -148.88)"/><path class="e" d="M379.249,212.341a6.708,6.708,0,0,1-3.2-.755c-1.807-.932-3.028-2.795-3.615-5.431-.671-2.981,1.183-14.608,1.267-15.1a6.941,6.941,0,0,1,2.45-4.863c2.329-1.77,7.556-2.05,10.5-1.1,3.484,1.118,5.171,4.509,5.73,5.916a12.68,12.68,0,0,1,.652,4.938l-.177.811a2.459,2.459,0,0,1,2.068,1.407,3.941,3.941,0,0,1-.149,3.727c-1.37,2.385-4.295,3.4-5.04,3.633-.578.811-3.577,4.835-6.671,6.037A10.908,10.908,0,0,1,379.249,212.341Zm3.41-26.859c-2.264,0-4.658.466-5.944,1.444a6.158,6.158,0,0,0-2.1,4.22c0,.168-1.919,12-1.286,14.8.531,2.366,1.593,3.987,3.149,4.817,2.329,1.239,5.143.382,6.242-.047,3.1-1.211,6.307-5.795,6.344-5.841l.093-.14.168-.047s3.289-.932,4.658-3.242a2.972,2.972,0,0,0,.121-2.9,1.574,1.574,0,0,0-1.668-.857l-.764.121.466-2.012h0a12.186,12.186,0,0,0-.6-4.444c-.522-1.286-2.05-4.388-5.161-5.385a12.316,12.316,0,0,0-3.727-.494Z" transform="translate(-159.586 -148.844)"/><path class="e" d="M382.227,198.095c-.112.475,0,.932.224.932s.522-.279.634-.755,0-.932-.224-.932S382.339,197.619,382.227,198.095Z" transform="translate(-160.263 -149.718)"/><path class="e" d="M376.8,197.075c-.112.466,0,.932.224.932s.522-.279.634-.745,0-.932-.224-.932S376.909,196.6,376.8,197.075Z" transform="translate(-159.891 -149.649)"/><path class="e" d="M385.4,196.155a.391.391,0,0,1-.354-.224,3.019,3.019,0,0,0-2.441-1.491.4.4,0,0,1-.373-.429h0a.419.419,0,0,1,.438-.373,3.8,3.8,0,0,1,3.093,1.938.391.391,0,0,1-.158.531h0a.382.382,0,0,1-.2.047Z" transform="translate(-160.266 -149.465)"/><path class="e" d="M375.42,195.065a.41.41,0,0,1-.289-.121.4.4,0,0,1,0-.568h0a2.879,2.879,0,0,1,3.261-.615.4.4,0,0,1,.149.55.391.391,0,0,1-.5.168h0a2.115,2.115,0,0,0-2.357.475.391.391,0,0,1-.261.112Z" transform="translate(-159.773 -149.456)"/><path class="e" d="M378.983,202h0a1.686,1.686,0,0,1-1.556-1.146c-.158-.624.261-1.062.634-1.444a2.013,2.013,0,0,0,.634-.932c.2-.932.438-2.646.438-2.655a.4.4,0,0,1,.8.112h0c0,.075-.252,1.714-.456,2.7a2.655,2.655,0,0,1-.839,1.332c-.326.335-.475.5-.438.671.121.475.839.54.839.55a.4.4,0,0,1,.373.429h0a.4.4,0,0,1-.419.382Z" transform="translate(-159.935 -149.591)"/><path class="e" d="M381.2,205.907a3.969,3.969,0,0,1-1.146-.168.4.4,0,0,1-.261-.5h0a.41.41,0,0,1,.512-.261,2.646,2.646,0,0,0,2.171-.252.4.4,0,0,1,.484.643A2.962,2.962,0,0,1,381.2,205.907Z" transform="translate(-160.098 -150.218)"/><path class="e" d="M388.642,182.366s-4.006-3.466-7.835-3.466-6.913,2.189-9.316,2.366-4.006-2-5.469.932,4.006,7.826,7.649,8.562,8.739-.363,10.2-.55a28.5,28.5,0,0,1,4.183,0s-1.09,3.456,0,4.556a3.354,3.354,0,0,1,1.276,2.543,17.091,17.091,0,0,0,.363,2.366l1.09.363.55-2a11.58,11.58,0,0,0,2.907-5.646c.55-3.27-2.18-6.521-2.18-6.521Z" transform="translate(-159.141 -148.458)"/><path class="d" d="M378.075,190.031a27.272,27.272,0,0,1-4.271-.336.2.2,0,0,1-.155-.223h0a.186.186,0,0,1,.214-.168h0c.056,0,6.223,1.146,10.984-.829,1.295-.531,2.031-1.248,2.2-2.143.326-1.714-1.565-3.559-1.584-3.577a.2.2,0,0,1,0-.289.214.214,0,0,1,.289,0c.084.075,2.068,2.012,1.7,3.941a3.484,3.484,0,0,1-2.432,2.441,18.679,18.679,0,0,1-6.941,1.183Z" transform="translate(-159.679 -148.698)"/><path class="d" d="M388.886,190.509a.2.2,0,0,1-.028-.4c.065,0,1.574-.2,2.357-2.385a2.646,2.646,0,0,0-.466-2.255,8.944,8.944,0,0,0-3.214-3.028.2.2,0,0,1-.2-.2h0a.2.2,0,0,1,.2-.2h0a8.255,8.255,0,0,1,3.326,2.86,3.251,3.251,0,0,1,.736,2.953c-.876,2.45-2.618,2.655-2.692,2.655Z" transform="translate(-160.615 -148.672)"/><text class="h" transform="translate(56.039 59.91)"><tspan x="0" y="0">INVI</tspan></text><text class="i" transform="translate(86.727 59.91)"><tspan x="0" y="0">T</tspan><tspan class="j" y="0">A</tspan></text><text class="h" transform="translate(103.907 59.91)"><tspan x="0" y="0">TION</tspan></text></g></svg>